Coordinates
version=1
nRows=5
nColumns=40
inDegrees=yes

Units are S.I. units (second, meters, Newtons, ...)
Angles are in degrees.

endheader
time	pelvis_tilt	pelvis_list	pelvis_rotation	pelvis_tx	pelvis_ty	pelvis_tz	hip_flexion_r	hip_adduction_r	hip_rotation_r	knee_angle_r	knee_angle_r_beta	ankle_angle_r	subtalar_angle_r	mtp_angle_r	hip_flexion_l	hip_adduction_l	hip_rotation_l	knee_angle_l	knee_angle_l_beta	ankle_angle_l	subtalar_angle_l	mtp_angle_l	lumbar_extension	lumbar_bending	lumbar_rotation	arm_flex_r	arm_add_r	arm_rot_r	elbow_flex_r	pro_sup_r	wrist_flex_r	wrist_dev_r	arm_flex_l	arm_add_l	arm_rot_l	elbow_flex_l	pro_sup_l	wrist_flex_l	wrist_dev_l
     15.75000000	      8.33093839	     28.53783791	     80.73309263	      0.59278132	      1.01686224	     -0.98339903	    -19.12148709	      8.06665051	      5.10514447	     10.74460707	      0.18752877	      7.82910483	      0.00000000	      0.00000000	    -24.34364732	     -8.45424787	    -12.91614306	     56.49900348	      0.98609363	     -3.01560400	      0.00000000	      0.00000000	    -41.46411542	      5.48315360	      7.24759511	      6.98113407	    -13.93638734	      3.50233907	    138.43729038	     85.66889760	      0.00000000	      0.00000000	      0.01211870	     -5.40594043	      0.98568835	    137.07855429	     81.58756541	      0.00000000	      0.00000000
     15.76000000	      7.63172096	     28.74287665	     81.19090467	      0.59330180	      1.01970795	     -0.98213655	    -20.45727246	      7.35487401	      4.70719995	      9.85063516	      0.17192602	      7.80671404	      0.00000000	      0.00000000	    -22.74536904	     -7.93922160	    -12.35940820	     56.80796072	      0.99148596	     -1.05509145	      0.00000000	      0.00000000	    -41.67845002	      4.94864830	      7.03552398	      7.41301240	    -14.20850854	      3.74185428	    138.31305535	     85.80314920	      0.00000000	      0.00000000	      0.16530961	     -5.56203834	      1.02501929	    137.07455705	     81.72541658	      0.00000000	      0.00000000
     15.77000000	      6.98355264	     28.70703452	     81.27465307	      0.59420234	      1.02206362	     -0.98055191	    -21.45385166	      6.61438666	      4.88308673	      9.11626174	      0.15910878	      8.12277146	      0.00000000	      0.00000000	    -21.02478281	     -7.37174296	    -12.27450246	     56.75056378	      0.99048419	     -0.69532057	      0.00000000	      0.00000000	    -41.72473633	      4.27682645	      7.19209869	      7.79559614	    -14.59260427	      3.98542890	    138.27610135	     85.66758573	      0.00000000	      0.00000000	      0.38870409	     -5.65846206	      1.19096662	    137.02540889	     81.67748295	      0.00000000	      0.00000000
     15.78000000	      6.70318542	     28.62906597	     81.13196706	      0.59516703	      1.02420040	     -0.97870310	    -22.26807804	      6.17213075	      4.63179763	      8.66420376	      0.15121888	      8.33808242	      0.00000000	      0.00000000	    -19.38821495	     -7.22966999	    -12.55249536	     56.47901299	      0.98574473	     -0.62327282	      0.00000000	      0.00000000	    -41.83316364	      3.85666696	      7.56015495	      8.33660521	    -15.05669891	      4.10814022	    138.26949087	     85.47481605	      0.00000000	      0.00000000	      0.60368680	     -5.66805763	      1.30325458	    137.03848344	     81.57964102	      0.00000000	      0.00000000
     15.79000000	      6.06925072	     28.78786909	     81.78203593	      0.59547866	      1.02651387	     -0.97798493	    -24.04598818	      5.63235603	      4.49484150	      6.97511854	      0.12173878	      7.85059625	      0.00000000	      0.00000000	    -18.00490988	     -6.81922192	    -12.03222434	     55.83468500	      0.97449909	      0.81999328	      0.00000000	      0.00000000	    -41.95865338	      3.49852608	      7.19857992	      8.55107548	    -15.22177272	      4.31757365	    138.18658556	     85.72899855	      0.00000000	      0.00000000	      0.62645027	     -5.88846200	      1.42441719	    137.00864774	     81.87872496	      0.00000000	      0.00000000
